<?xml version="1.0" standalone="no"?><!DOCTYPE svg PUBLIC "-//W3C//DTD SVG 1.1//EN" "http://www.w3.org/Graphics/SVG/1.1/DTD/svg11.dtd"><svg t="1571986876252" class="icon" viewBox="0 0 1024 1024" version="1.1" xmlns="http://www.w3.org/2000/svg" p-id="4016" xmlns:xlink="http://www.w3.org/1999/xlink" width="200" height="200"><defs><style type="text/css"></style></defs><path d="M552.96 152.064v719.872c0 16.11776-12.6976 29.184-28.3648 29.184a67.4816 67.4816 0 0 1-48.39424-20.64384l-146.8416-151.12192A74.5472 74.5472 0 0 0 275.8656 706.56h-25.3952C146.08384 706.56 61.44 619.45856 61.44 512s84.64384-194.56 189.0304-194.56h25.3952c20.0704 0 39.30112-8.192 53.47328-22.79424l146.8416-151.1424A67.4816 67.4816 0 0 1 524.61568 122.88C540.2624 122.88 552.96 135.94624 552.96 152.064z m400.50688 514.6624a31.06816 31.06816 0 0 1-41.41056 2.29376l-88.1664-70.656a40.2432 40.2432 0 0 0-50.33984 0l-88.1664 70.656a31.06816 31.06816 0 0 1-43.68384-43.68384l70.656-88.1664a40.2432 40.2432 0 0 0 0-50.33984l-70.656-88.1664a31.06816 31.06816 0 0 1 43.68384-43.68384l88.1664 70.656c14.70464 11.79648 35.6352 11.79648 50.33984 0l88.1664-70.656a31.06816 31.06816 0 0 1 43.68384 43.68384l-70.656 88.1664a40.2432 40.2432 0 0 0 0 50.33984l70.656 88.1664a31.06816 31.06816 0 0 1-2.27328 41.41056z" p-id="4017"></path></svg>