<?xml version="1.0" standalone="no"?><!DOCTYPE svg PUBLIC "-//W3C//DTD SVG 1.1//EN" "http://www.w3.org/Graphics/SVG/1.1/DTD/svg11.dtd"><svg t="1571987794717" class="icon" viewBox="0 0 1024 1024" version="1.1" xmlns="http://www.w3.org/2000/svg" p-id="4274" xmlns:xlink="http://www.w3.org/1999/xlink" width="200" height="200"><defs><style type="text/css"></style></defs><path d="M742.33856 837.87776A122.83904 122.83904 0 0 1 634.88 901.12c-36.864 0-69.95968-16.24064-92.48768-41.984L163.65568 823.0912a45.056 45.056 0 0 1 0-89.7024l378.73664-36.0448A122.59328 122.59328 0 0 1 634.88 655.36a122.83904 122.83904 0 0 1 107.45856 63.24224l118.10816 13.88544a46.08 46.08 0 0 1 0 91.50464l-118.10816 13.88544zM420.0448 593.05984a122.88 122.88 0 0 1-202.5472-26.56256l-54.0672-7.74144a47.22688 47.22688 0 0 1 0-93.51168l54.0672-7.72096a122.88 122.88 0 0 1 202.5472-26.58304l440.25856 36.70016a44.52352 44.52352 0 0 1 0 88.71936L420.0448 593.05984z m183.9104-428.35968a122.88 122.88 0 0 1 202.5472 26.56256l54.0672 7.74144a47.22688 47.22688 0 0 1 0 93.51168l-54.0672 7.72096a122.88 122.88 0 0 1-202.5472 26.58304L163.69664 290.11968a44.52352 44.52352 0 0 1 0-88.71936L603.9552 164.70016zM696.32 307.2a61.44 61.44 0 1 0 0-122.88 61.44 61.44 0 0 0 0 122.88zM327.68 573.44a61.44 61.44 0 1 0 0-122.88 61.44 61.44 0 0 0 0 122.88z m307.2 266.24a61.44 61.44 0 1 0 0-122.88 61.44 61.44 0 0 0 0 122.88z" p-id="4275"></path></svg>