<?xml version="1.0" encoding="utf-8"?>
<!-- Generator: Adobe Illustrator 23.0.0, SVG Export Plug-In . SVG Version: 6.00 Build 0)  -->
<svg version="1.1" id="图层_1" xmlns="http://www.w3.org/2000/svg" xmlns:xlink="http://www.w3.org/1999/xlink" x="0px" y="0px"
	 viewBox="0 0 2850 1423" style="enable-background:new 0 0 2850 1423;" xml:space="preserve">
<style type="text/css">
	.st0{fill:#141341;}
</style>
<g>
	<path class="st0" d="M1158.52,821.11V450.13c0-6.98,5.66-12.64,12.64-12.64h370.98c6.98,0,12.64,5.66,12.64,12.64v17.96
		c0,6.98-5.66,12.64-12.64,12.64h-322.35c-6.98,0-12.64,5.66-12.64,12.64v286.33c0,6.98,5.66,12.64,12.64,12.64h327.76
		c6.98,0,12.64,5.66,12.64,12.64v16.15c0,6.98-5.66,12.64-12.64,12.64h-376.39C1164.18,833.75,1158.52,828.09,1158.52,821.11z
		 M1268.39,619.41c-2.41-2.39-6.02-5.4-10.81-9.01c-2.46-2.46-6.9-6.32-13.3-11.6c-5.49-4.53-6.1-12.57-1.52-18.02
		c20.27-24.14,37.06-51.78,50.36-82.91c2.43-5.69,8.5-8.9,14.51-7.45l19.49,4.68c7.8,1.87,12.07,10.49,8.53,17.69
		c-0.05,0.11-0.11,0.22-0.16,0.32c-4.11,8.31,2.11,18.04,11.38,18.04h166.46c6.98,0,12.64,5.66,12.64,12.64v14.36
		c0,6.98-5.66,12.64-12.64,12.64h-83.16c-6.76,0-12.27,5.22-12.6,11.97c-0.29,5.88-0.77,12.51-1.43,19.9
		c-0.03,0.35-0.05,0.72-0.05,1.07v8.46c0,6.98,5.66,12.64,12.64,12.64h104.42c6.98,0,12.64,5.66,12.64,12.64v16.15
		c0,6.98-5.66,12.64-12.64,12.64h-126.06l-3.6,3.6l-1.79,3.6c27.6,13.23,66.64,33.63,117.07,61.24c7.2,3.6,12.61,6.62,16.22,9.01
		l-20.19,30.96c-3.78,5.8-11.54,7.42-17.37,3.68c-34.02-21.83-68.04-42.83-102.04-63.01c-5.31-3.15-12.16-2.07-16.03,2.74
		c-19.24,23.9-55.27,45.65-108.09,65.23c-5.5,2.04-11.87,0.02-15.01-4.93c-2.1-3.3-4.65-7.06-7.65-11.26
		c-1.44-2.01-2.81-3.92-4.11-5.72c-4.94-6.86-1.87-16.63,6.16-19.3c49.05-16.27,81.86-34.59,98.46-54.93
		c6.84-8.39,1.18-20.92-9.64-20.92h-96.24c-6.98,0-12.64-5.66-12.64-12.64v-16.15c0-6.98,5.66-12.64,12.64-12.64h113.01
		c6.65,0,12.2-5.06,12.62-11.7c0.28-4.4,0.43-9.51,0.43-15.32c0.53-4.84,0.94-9.32,1.24-13.44c0.53-7.35-5.24-13.58-12.61-13.58
		h-46.6c-4.28,0-8.17,2.14-10.49,5.74C1291.83,590.36,1281.04,604.66,1268.39,619.41z"/>
	<path class="st0" d="M2013.85,583.89c-3.02,6.86-11.16,9.47-17.61,5.65c-5.91-3.5-12.57-7.95-20-13.36
		c-2.41-1.18-4.22-2.39-5.4-3.6v29.07c0,6.83-5.53,12.36-12.36,12.36h-169.82c-6.83,0-12.36-5.53-12.36-12.36l0,0
		c0-10.28-11.8-16.1-19.91-9.78c-1.7,1.32-3.47,2.7-5.3,4.12c-3.6,2.42-6.61,4.22-9,5.4c-5.32-10.64-10.98-21.28-16.95-31.92
		c-3.35-5.97-1.18-13.28,4.66-16.86c1.76-1.08,3.46-2.23,5.09-3.45h-30.88c-6.83,0-12.36,5.53-12.36,12.36v30.34
		c0,3.75,1.65,7.24,4.57,9.58c14.21,11.4,29.14,23.54,44.83,36.4c4.72,3.87,5.96,10.65,2.86,15.9l-9.92,16.78
		c-4.11,6.95-13.67,8.16-19.38,2.45l-1.86-1.86c-7.79-7.78-21.1-2.27-21.1,8.74V837.6c0,6.83-5.53,12.36-12.36,12.36h-20.31
		c-6.83,0-12.36-5.53-12.36-12.36V707.02c0-13.09-17.64-17.23-23.35-5.45c-2.46,5.07-5.03,10.13-7.71,15.2
		c-5.49,10.36-21.1,7.76-23.12-3.79c-1.32-7.55-2.79-15.6-4.39-24.15c-0.54-2.88-0.03-5.94,1.46-8.47
		c21.3-36.12,38.63-74.45,52.01-114.98c2.63-7.96-3.48-16.2-11.86-16.2h-21.11c-6.83,0-12.36-5.53-12.36-12.36V520.1
		c0-6.83,5.53-12.36,12.36-12.36h25.71c6.83,0,12.36-5.53,12.36-12.36v-63.54c0-6.83,5.53-12.36,12.36-12.36h20.31
		c6.83,0,12.36,5.53,12.36,12.36v63.54c0,6.83,5.53,12.36,12.36,12.36h20.31c6.83,0,12.36,5.53,12.36,12.36v5.54
		c0,10.19,11.65,15.98,19.86,9.95c40.99-30.11,73.36-67.62,97.12-112.53c2.29-4.33,6.84-6.95,11.72-6.59l40.61,3.01l-5.88,12.95
		c-1.91,4.21-1.35,9.23,1.5,12.87c33.62,43.04,72.52,77.01,116.65,101.91c5.69,3.21,7.91,10.15,5.08,16.04
		C2020.05,570.13,2016.88,577.01,2013.85,583.89z M1725.89,815.99v-13.1c0-6.83,5.53-12.36,12.36-12.36h160.84
		c5.23,0,9.91-3.23,11.63-8.17c9.19-26.26,20.83-63.78,34.91-112.51c1.93-7.68,3.68-14.16,5.25-19.45c1.89-6.35,8.41-10,14.84-8.39
		l19.14,4.78c7.03,1.76,11.04,9.14,8.7,15.99c-3.18,9.28-7.14,20.65-11.89,34.09c-10.17,31.37-18.9,57.06-26.2,77.08
		c-2.95,8.08,3.01,16.58,11.61,16.58h36.44c6.83,0,12.36,5.53,12.36,12.36v13.1c0,6.83-5.53,12.36-12.36,12.36h-265.27
		C1731.42,828.34,1725.89,822.81,1725.89,815.99z M1778.5,760.77c-8.65-31.26-17.68-62.14-27.07-92.66
		c-2.11-6.86,2.04-14.03,9.04-15.62l15.92-3.62c6.12-1.39,12.34,1.92,14.45,7.84c10.46,29.38,20.14,60.33,29.04,92.81
		c1.82,6.65-2.18,13.62-8.85,15.36l-17.54,4.58C1786.96,771.15,1780.3,767.27,1778.5,760.77z M1863.65,489.09
		c-16.31,21.63-35.26,42.3-56.84,61.99c-8.36,7.63-3.13,21.5,8.19,21.5h120.35c11.56,0,16.62-14.36,7.8-21.82
		c-23.19-19.61-43.05-40.18-59.57-61.72C1878.47,482.39,1868.7,482.39,1863.65,489.09z M1862.21,740.91
		c-5.2-25.06-12.18-53.33-20.92-84.82c-1.96-7.05,2.52-14.35,9.73-15.6l16.69-2.9c6.36-1.11,12.56,2.84,14.18,9.09
		c7.35,28.43,13.98,57.23,19.86,86.39c1.37,6.8-3.16,13.45-9.99,14.69l-15.28,2.78C1869.87,751.73,1863.58,747.5,1862.21,740.91z"/>
	<path class="st0" d="M2059.96,818.27l-5.19-10.81c-2.86-5.96-1.79-13.11,2.84-17.82c7.6-7.73,18.31-17.65,32.11-29.74
		c4.79-3.6,8.39-6.58,10.81-9.01V631.66c0-8.75-7.1-15.85-15.85-15.85h-15.13c-8.75,0-15.85-7.1-15.85-15.85v-13.33
		c0-8.75,7.1-15.85,15.85-15.85h60.16c8.75,0,15.85,7.1,15.85,15.85V742.5c0,3.13,0.86,6.27,2.59,8.87
		c20.57,30.91,52.72,46.36,96.47,46.36c99.22,0,173.19-0.43,221.87-1.3c11.06-0.2,18.76,10.72,15.12,21.17
		c-1.08,3.09-2.09,6.1-3.05,9.02c-2.12,6.47-8.19,10.75-14.99,10.75l-139.69,0c-38.45,0-69.06-0.62-91.86-1.8
		c-41.61-1.05-73.76-13.35-96.43-36.9c-6.09-6.33-15.97-6.73-22.29-0.64c-6.63,6.38-14.2,14.29-22.71,23.74
		c-1.66,1.84-4.02,3.18-6.48,3.55c-11.37,1.72-12.84,0.12-19.99-3.02C2062.31,821.49,2060.81,820.05,2059.96,818.27z
		 M2142.49,524.38c-7.19,4.69-16.77,2.88-21.64-4.18c-8.73-12.68-20.9-29.44-36.53-50.28c-2.03-2.7-3.91-5.21-5.65-7.53
		c-5.67-7.55-3.46-18.29,4.67-23.09l12.3-7.27c6.96-4.11,15.82-2.43,20.67,4.03c3.61,4.8,7.85,10.53,12.71,17.19
		c0.21,0.29,0.46,0.61,0.7,0.89c13.12,15.47,23.49,28.16,31.11,38.11c5.6,7.3,3.69,17.78-4.02,22.81L2142.49,524.38z M2368.1,765.11
		c-0.16-0.69-0.31-1.38-0.47-2.07c-2.42-10.37,5.55-20,16.2-19.59c4.11,0.16,8.15,0.24,12.1,0.24c16.81,1.21,24.61-7.79,23.42-27.02
		v-7.2h-56.19c-8.75,0-15.85,7.1-15.85,15.85v29.54c0,8.75-7.1,15.85-15.85,15.85h-11.54c-8.75,0-15.85-7.1-15.85-15.85v-29.54
		c0-8.75-7.1-15.85-15.85-15.85h-38.55c-8.75,0-15.85,7.1-15.85,15.85v34.94c0,8.75-7.1,15.85-15.85,15.85h-13.32
		c-8.75,0-15.85-7.1-15.85-15.85V550.6c0-8.75,7.1-15.85,15.85-15.85h21.45c16.69,0,22.11-22.49,7.2-29.98l-0.79-0.4
		c-0.31-0.16-0.68-0.36-0.98-0.54c-5.77-3.44-11.81-4.32-12.13-6.91c-1.01-8.24,25.21-21.61,25.21-21.61h-45.38
		c-8.75,0-15.85-7.1-15.85-15.85v-4.33c0-8.75,7.1-15.85,15.85-15.85h243.88c8.75,0,15.85,7.1,15.85,15.85v14.44
		c0,5.77-3.13,11.08-8.17,13.87l-39,21.59c-14.32,7.93-8.69,29.72,7.68,29.72h29.05c8.75,0,15.85,7.1,15.85,15.85v171.48
		c1.17,36.02-15.62,54.04-50.43,54.04c-7.26,0.91-17.24,1.47-29.93,1.69C2376.37,777.94,2369.78,772.56,2368.1,765.11z
		 M2233.82,584.83v6.12c0,8.75,7.1,15.85,15.85,15.85h38.55c8.75,0,15.85-7.1,15.85-15.85v-6.12c0-8.75-7.1-15.85-15.85-15.85
		h-38.55C2240.91,568.98,2233.82,576.07,2233.82,584.83z M2233.82,655.07v4.32c0,8.75,7.1,15.85,15.85,15.85h38.55
		c8.75,0,15.85-7.1,15.85-15.85v-4.32c0-8.75-7.1-15.85-15.85-15.85h-38.55C2240.91,639.22,2233.82,646.32,2233.82,655.07z
		 M2332.41,475.32h-17.98c-15.81,0-22.01,20.82-8.58,29.18c2.8,1.74,5.58,3.5,8.34,5.28c4.89,3.15,11.06,3.42,16.16,0.62l9.7-5.33
		C2354.41,497.16,2348.8,475.32,2332.41,475.32z M2403.49,568.98h-40.34c-8.75,0-15.85,7.1-15.85,15.85v6.12
		c0,8.75,7.1,15.85,15.85,15.85h40.34c8.75,0,15.85-7.1,15.85-15.85v-6.12C2419.34,576.07,2412.25,568.98,2403.49,568.98z
		 M2347.3,655.07v4.32c0,8.75,7.1,15.85,15.85,15.85h40.34c8.75,0,15.85-7.1,15.85-15.85v-4.32c0-8.75-7.1-15.85-15.85-15.85h-40.34
		C2354.4,639.22,2347.3,646.32,2347.3,655.07z"/>
</g>
<g>
	<path class="st0" d="M1237.39,993.57h-52.99v49.37h59.26v14.7h-77.01V920.97h73.88v14.7h-56.14v43.28h52.99V993.57z"/>
	<path class="st0" d="M1300.77,1014.68l-14.12,42.95h-18.3l46.48-136.67h21.23l46.68,136.67h-18.88l-14.64-42.95H1300.77z
		 M1345.65,1000.89l-13.53-39.33c-2.96-8.95-5.02-17.09-7.04-24.93h-0.48c-1.96,7.99-4.09,16.34-6.78,24.7l-13.47,39.57H1345.65z"/>
	<path class="st0" d="M1412.57,1036.13c7.89,4.94,19.41,8.85,31.53,8.85c18.05,0,28.67-9.43,28.67-23.27
		c0-12.67-7.41-20.14-25.85-27.04c-22.31-7.91-36.14-19.65-36.14-38.77c0-21.27,17.69-37.06,44.3-37.06
		c13.88,0,24.19,3.22,30.15,6.61l-4.93,14.47c-4.36-2.59-13.5-6.49-25.81-6.49c-18.77,0-25.86,11.12-25.86,20.44
		c0,12.69,8.31,18.95,27.18,26.24c23.18,9.09,34.86,20.22,34.86,40.26c0,20.96-15.44,39.41-47.83,39.41
		c-13.21,0-27.62-3.99-34.92-8.92L1412.57,1036.13z"/>
	<path class="st0" d="M1557.56,1057.64V999.7l-43.34-78.73h20.21l19.19,37.75c5.21,10.36,9.39,18.64,13.59,28.2h0.41
		c3.77-8.99,8.44-17.94,13.71-28.31l19.71-37.65h20l-45.73,78.46v58.2H1557.56z"/>
	<path class="st0" d="M1776.9,920.97v57.24h66.06v-57.24h17.74v136.67h-17.74v-64.12h-66.06v64.12h-17.74V920.97H1776.9z"/>
	<path class="st0" d="M1974.26,993.57h-52.99v49.37h59.26v14.7h-77.01V920.97h73.88v14.7h-56.14v43.28h52.99V993.57z"/>
	<path class="st0" d="M2037.64,1014.68l-14.12,42.95h-18.3l46.48-136.67h21.23l46.68,136.67h-18.88l-14.64-42.95H2037.64z
		 M2082.52,1000.89l-13.53-39.33c-2.96-8.95-5.02-17.09-7.04-24.93h-0.48c-1.96,7.99-4.09,16.34-6.78,24.7l-13.47,39.57H2082.52z"/>
	<path class="st0" d="M2151.72,920.97h17.74v121.77h58.43v14.9h-76.18V920.97z"/>
	<path class="st0" d="M2267.84,935.88h-41.63v-14.91h101.2v14.91h-41.83v121.76h-17.74V935.88z"/>
	<path class="st0" d="M2372.44,920.97v57.24h66.06v-57.24h17.74v136.67h-17.74v-64.12h-66.06v64.12h-17.74V920.97H2372.44z"/>
</g>
<g>
	<path class="st0" d="M700.35,387.6c0,0,392.4-32.14,341.66,263.86C1008.19,771.54,852.58,822.28,649.61,780
		c0,0,170.79-21.85,189.44-199.58C847.44,473.86,764.63,406.2,700.35,387.6z"/>
	<path class="st0" d="M698.66,434.96c0,0-218.19-62.58-317.98,187.74c-49.05,150.53,33.83,471.9,327.28,394.94
		c0,0-114.17-92.18-124.32-272.59S661.39,467.69,698.66,434.96z"/>
	<path class="st0" d="M865.55,888.25c0,0-3.38,137.57-151.1,163.5c0,0,240.18,41.72,349.55-184.92L865.55,888.25z"/>
</g>
</svg>
