<?xml version="1.0" standalone="no"?><!DOCTYPE svg PUBLIC "-//W3C//DTD SVG 1.1//EN" "http://www.w3.org/Graphics/SVG/1.1/DTD/svg11.dtd"><svg t="1571908846436" class="icon" viewBox="0 0 1024 1024" version="1.1" xmlns="http://www.w3.org/2000/svg" p-id="6965" xmlns:xlink="http://www.w3.org/1999/xlink" width="200" height="200"><defs><style type="text/css"></style></defs><path d="M958.577742 953.822312c-44.314753 44.314753-103.401091 65.417017-170.928335 69.63747-158.266977 8.440905-362.958933-82.298828-533.887268-253.227163C84.944031 599.304285-7.905929 394.612328 0.534977 238.455578 4.755429 168.818108 27.967919 109.73177 72.282673 65.417017 106.046294 31.653395 150.361048 8.440905 201.00648 0c21.102264 4.220453 37.984074 16.881811 50.645433 37.984074v2.110227l92.849959 170.928334c18.992037 35.873848 6.330679 82.298828-29.543169 101.290866l-88.629506 71.747696c29.543169 92.84996 73.857922 173.038561 156.15675 257.447615 82.298828 82.298828 162.487429 126.613581 255.337389 156.15675l71.747696-90.739733c18.992037-35.873848 65.417017-50.645433 101.290865-31.653395l173.038561 92.849959c23.21249 12.661358 35.873848 33.763622 37.984074 59.086338-8.440905 50.645433-29.543169 92.84996-63.30679 126.613581z" p-id="6966"></path></svg>