<?xml version="1.0" standalone="no"?><!DOCTYPE svg PUBLIC "-//W3C//DTD SVG 1.1//EN" "http://www.w3.org/Graphics/SVG/1.1/DTD/svg11.dtd"><svg t="1584439312425" class="icon" viewBox="0 0 1024 1024" version="1.1" xmlns="http://www.w3.org/2000/svg" p-id="5000" xmlns:xlink="http://www.w3.org/1999/xlink" width="200" height="200"><defs><style type="text/css"></style></defs><path d="M691.2 691c-12.4 0-22.4 10.1-22.4 22.5s10 22.5 22.4 22.5c12.4 0 22.4-10.1 22.4-22.5S703.5 691 691.2 691zM512 63.8c-247.4 0-448 200.6-448 448s200.6 448 448 448 448-200.6 448-448-200.6-448-448-448z m179.2 717.1c-37.1 0-67.2-30.2-67.2-67.4 0-29.3 18.8-54 44.9-63.3V399.4c0-61.8-50-111.9-111.7-111.9-54.6 0-99.8 39.2-109.5 91.1 86.9 11.5 153.9 81 153.9 165.3v62.6c-0.4 51-25.7 98.1-67.2 129.3v0.3c0 24.8-20.1 44.9-44.8 44.9-24.7 0-44.8-20.1-44.8-44.9 0-24.8 20.1-44.9 44.8-44.9 7.4 0 14.2 2 20.4 5.1 26.9-22.7 43.2-54.9 43.6-89.8v-62.6c0-65.4-55-118.7-124.2-122.1h-14c-69.2 3.4-124.2 56.7-124.2 122.1v62.6c0.3 34.9 16.6 67.2 43.5 89.9 6.2-3.2 13.1-5.2 20.5-5.2 24.7 0 44.8 20.1 44.8 44.9 0 24.8-20.1 44.9-44.8 44.9-24.7 0-44.8-20.1-44.8-44.9v-0.4c-41.5-31.2-66.9-78.2-67.2-129.2v-62.6c0-86.1 69.8-156.9 159.4-166.1 10.5-76.3 75.7-135.1 154.7-135.1 86.3 0 156.3 70.2 156.3 156.7v250.8c26 9.3 44.8 34 44.8 63.3 0 37.2-30.1 67.4-67.2 67.4z" p-id="5001"></path></svg>