<?xml version="1.0" standalone="no"?><!DOCTYPE svg PUBLIC "-//W3C//DTD SVG 1.1//EN" "http://www.w3.org/Graphics/SVG/1.1/DTD/svg11.dtd"><svg t="1571970933002" class="icon" viewBox="0 0 1026 1024" version="1.1" xmlns="http://www.w3.org/2000/svg" p-id="2085" xmlns:xlink="http://www.w3.org/1999/xlink" width="200.390625" height="200"><defs><style type="text/css"></style></defs><path d="M995.342126 316.037055h-35.348221c-16.176304 0-33.351146-12.381863-38.144124-27.459776l-20.270308-48.129497c-7.688737-13.879668-4.493418-34.449537 6.889908-45.633155l25.063286-24.464164a28.278576 28.278576 0 0 0 0-40.640468l-41.639005-40.640468c-11.483179-11.183618-30.155826-11.183618-41.639006 0l-25.063286 24.464164c-11.383325 11.183618-32.452462 14.17923-46.731546 6.790054l-49.227888-19.771039C713.754608 95.859581 701.073184 79.084154 701.073184 63.207411V28.757874C701.073184 12.980985 687.692784 0 671.616333 0h-58.813846C596.526329 0 583.245783 12.980985 583.245783 28.757874v34.449537c0 15.776889-12.58157 32.552316-28.058899 37.245441l-49.327742 19.771039c-14.279083 7.48903-35.248367 4.393564-46.731546-6.790054l-25.16314-24.464164C422.680985 77.885909 403.908484 77.885909 392.525158 89.069527l-41.639005 40.640468a28.278576 28.278576 0 0 0 0 40.640468l24.963433 24.464164c11.483179 11.183618 14.578645 31.753486 6.889907 45.633155L362.569039 288.577279c-4.792979 15.077913-21.967821 27.459776-38.144124 27.459776h-35.348221c-16.176304 0-29.45685 12.881131-29.45685 28.757874v57.415895c0 15.776889 13.280546 28.757874 29.45685 28.757874h35.348221c16.176304 0 33.351146 12.381863 38.144124 27.459776l20.370161 48.129498c1.897221 3.494881 3.195319 7.389176 3.794442 11.483179 9.186543-3.794442 18.972209-5.89137 29.157289-5.89137 20.0706 0 39.042808 7.688737 53.321892 21.668259l31.453925 30.655095c14.378937 13.979522 22.666797 33.650707 22.666797 53.721307 0 4.992686-0.499269 10.085227-1.497806 14.978059l33.550853 13.3804c15.477328 4.693125 28.058898 21.468552 28.058898 37.245441v34.349683c0 15.776889 13.280546 28.757874 29.45685 28.757875h58.813847c16.076451 0 29.45685-12.980985 29.456851-28.757875v-34.349683c0-15.776889 12.681424-32.552316 28.158751-37.245441l49.327743-19.771038c14.279083-7.48903 35.34822-4.493418 46.831399 6.690199l24.963433 24.464164c11.483179 11.183618 30.155826 11.183618 41.639005 0l41.639005-40.640468a28.278576 28.278576 0 0 0 0-40.640468L908.469381 552.191126c-11.383325-11.083764-14.578645-31.753486-6.889908-45.633154l20.270308-48.129498c4.792979-15.077913 22.067674-27.359922 38.144124-27.359922h35.348221c16.176304 0 29.356997-12.881131 29.356996-28.757874v-57.515749c0-15.876743-13.180692-28.757874-29.356996-28.757874zM642.259337 517.042613c-81.280936 0-147.184398-64.305802-147.184398-143.589663s65.903462-143.589664 147.184398-143.589664S789.443735 294.169088 789.443735 373.45295c0 79.383715-65.903462 143.589664-147.184398 143.589663z" fill="#272635" p-id="2086"></path><path d="M511.650658 724.43881h-24.564017c-11.283471 0-23.166065-8.587421-26.561092-19.072062L446.446173 671.915748c-5.292248-9.685812-3.095466-23.964895 4.792979-31.753486l17.374549-16.975134c7.988298-7.788591 7.988298-20.470015 0-28.258605l-28.957582-28.258606c-7.988298-7.788591-20.969283-7.788591-28.957582 0l-17.374549 16.975134c-7.888445 7.788591-22.566943 9.885519-32.552316 4.693125L326.621697 574.558362c-10.684349-3.195319-19.571331-14.878206-19.571331-25.862116v-23.964895c0-10.98391-9.286397-19.970746-20.470015-19.970746h-40.940029c-11.283471 0-20.470015 8.986836-20.470015 19.970746v23.964895c0 10.98391-8.787128 22.666797-19.571331 25.862116l-34.249829 13.779814c-9.985373 5.192394-24.564018 3.095466-32.452462-4.693125l-17.474403-16.975134c-7.988298-7.788591-20.969283-7.788591-28.957582 0l-28.957582 28.258606c-7.988298 7.788591-7.988298 20.470015 0 28.258605l17.374549 16.975134c7.988298 7.788591 10.18508 22.067674 4.79298 31.753486l-14.079376 33.451c-3.295173 10.484642-15.277621 19.072062-26.561093 19.072062H20.470161c-11.283471 0-20.470015 8.986836-20.470015 19.970746v39.941492c0 10.98391 9.186543 19.970746 20.470015 19.970746H45.034178c11.283471 0 23.166065 8.587421 26.461239 19.072063l14.17923 33.450999c5.292248 9.685812 3.195319 24.064749-4.79298 31.753486l-17.474402 16.975134c-7.888445 7.788591-7.888445 20.470015 0 28.258606l28.957581 28.258605c7.988298 7.788591 20.969283 7.788591 28.957582 0l17.474403-16.975134c7.888445-7.788591 22.566943-9.885519 32.452462-4.593271l34.349683 13.779815c10.784203 3.295173 19.571331 14.878206 19.571331 25.862116v23.865041c0 10.98391 9.186543 19.970746 20.470015 19.970746h40.940029c11.183618 0 20.470015-8.986836 20.470015-19.970746v-23.865041c0-10.98391 8.787128-22.666797 19.571331-25.862116l34.249829-13.779815c9.885519-5.192394 24.564018-3.095466 32.552316 4.593271l17.374549 16.975134c7.988298 7.788591 20.969283 7.788591 28.957582 0l28.957581-28.258605c7.988298-7.788591 7.988298-20.470015 0-28.258606l-17.374549-16.975134c-7.888445-7.688737-10.085227-22.067674-4.792979-31.753486l14.079376-33.450999c3.395027-10.484642 15.277621-19.072062 26.561092-19.072063h24.564018c11.283471 0 20.470015-8.986836 20.470015-19.970746v-39.941492c-0.099854-10.98391-9.286397-19.970746-20.569869-19.970746m-143.190248 39.941492c0 55.219113-45.832862 99.85373-102.350074 99.85373s-102.350073-44.734471-102.350073-99.85373 45.832862-99.85373 102.350073-99.85373c56.517211-0.099854 102.350073 44.634617 102.350074 99.85373" fill="#272635" p-id="2087"></path></svg>